# xmcd CD database file
#
# Track frame offsets:
#	150
#	11875
#	25875
#	38812
#	55655
#	71715
#	82175
#	95820
#	110000
#	128110
#	139545
#	151000
#
# Disc length: 2195 seconds
#
# Revision: 9
# Processed by: cddbd v1.5.2PL0 Copyright (c) Steve Scherf et al.
# Submitted via: CDex 1.50
#
DISCID=a008910c
DTITLE=Johnny Cash - I Walk the Line CD01
DYEAR=2003
DGENRE=Country
TTITLE0=Ring of Fire (1963)
TTITLE1=Orange Blossom Special (1965)
TTITLE2=Man in Black (1971)
TTITLE3=(Ghost) Riders in the Sky (1979)
TTITLE4=Johnny 99 (1983)
TTITLE5=Bonanza (1963)
TTITLE6=Even Cowgirls Get the Blues (1986) (Johnny Cash and Waylon Jennings)
TTITLE7=Bull Rider (1979)
TTITLE8=One Piece at a Time (1976)
TTITLE9=A Thing Called Love (1972)
TTITLE10=The Sons of Katie Elder (1965) (Johnny Cash and Elmer Bernstein)
TTITLE11=It Ain't Me, Babe (1970) (Johnny Cash and June Carter)
EXTD=Track dates supplied.\nArtist names shown correctly.\n YEAR: 2003
EXTT0=
EXTT1=
EXTT2=
EXTT3=
EXTT4=
EXTT5=
EXTT6=
EXTT7=
EXTT8=
EXTT9=
EXTT10=
EXTT11=
PLAYORDER=
